<svg xmlns="http://www.w3.org/2000/svg" xmlns:xlink="http://www.w3.org/1999/xlink" width="516" zoomAndPan="magnify" viewBox="0 0 386.88 138.749998" height="185" preserveAspectRatio="xMidYMid meet" version="1.0"><defs><g/><clipPath id="e5e0f256f1"><path d="M 0.289062 35.058594 L 57.183594 35.058594 L 57.183594 93.453125 L 0.289062 93.453125 Z M 0.289062 35.058594 " clip-rule="nonzero"/></clipPath><clipPath id="b2a4127e3a"><path d="M 0.289062 63.441406 L 0.289062 64.730469 C 0.289062 72.257812 3.277344 79.476562 8.601562 84.800781 C 13.921875 90.121094 21.140625 93.113281 28.667969 93.113281 C 36.195312 93.113281 43.414062 90.121094 48.738281 84.800781 C 54.0625 79.476562 57.050781 72.257812 57.050781 64.730469 L 57.050781 63.441406 C 57.050781 55.914062 54.0625 48.695312 48.738281 43.371094 C 43.414062 38.050781 36.195312 35.058594 28.667969 35.058594 C 21.140625 35.058594 13.921875 38.050781 8.601562 43.371094 C 3.277344 48.695312 0.289062 55.914062 0.289062 63.441406 Z M 0.289062 63.441406 " clip-rule="nonzero"/></clipPath></defs><g clip-path="url(#e5e0f256f1)"><g clip-path="url(#b2a4127e3a)"><path fill="#fa8501" d="M 110.0625 39.953125 C 109.851562 82.042969 109.675781 127.898438 109.675781 141.859375 L 109.675781 167.238281 L 272.957031 167.238281 L 272.957031 -36.570312 L 110.449219 -36.570312 Z M 23.117188 25.21875 C 9.195312 27.144531 -3.78125 37.300781 -8.902344 50.28125 C -11.824219 57.675781 -12.570312 65.597656 -11.042969 72.867188 C -8.371094 85.574219 -0.660156 95.527344 10.957031 101.277344 C 16.589844 104.0625 21.996094 105.265625 28.90625 105.265625 C 44.511719 105.269531 58.289062 96.425781 65.097656 82.019531 C 67.847656 76.210938 68.773438 70.886719 68.394531 63.082031 C 68.042969 55.847656 67.347656 53.003906 64.550781 47.359375 C 56.875 31.894531 40.007812 22.882812 23.117188 25.21875 M 23.027344 32.929688 C 12.59375 34.796875 3.199219 42.105469 -1.332031 51.886719 C -3.183594 55.882812 -4.519531 63.578125 -4.070312 67.648438 C -3.140625 76.058594 -0.09375 82.5 5.683594 88.253906 C 21.847656 104.355469 48.339844 99.496094 58.101562 78.640625 C 63.585938 66.917969 61.398438 52.894531 52.59375 43.371094 C 48.480469 38.917969 44.800781 36.46875 39.1875 34.449219 C 34.4375 32.738281 27.664062 32.101562 23.027344 32.929688 M 32.960938 44.175781 C 27.546875 45.222656 22.175781 46.246094 21.027344 46.453125 L 18.9375 46.828125 L 19.484375 49.855469 C 19.789062 51.523438 20.078125 52.929688 20.128906 52.980469 C 20.179688 53.03125 23.4375 52.425781 27.363281 51.632812 C 31.292969 50.835938 34.648438 50.324219 34.816406 50.496094 C 35.167969 50.847656 30.265625 59.730469 28.597656 61.757812 L 27.492188 63.105469 L 25.40625 61.078125 C 21.601562 57.386719 16.351562 55.585938 12.445312 56.636719 C 5.417969 58.53125 2.003906 67.535156 6.222656 73.066406 C 9.609375 77.507812 16.847656 78.59375 22.738281 75.542969 L 25.835938 73.941406 L 25.421875 76.441406 C 24.925781 79.414062 23.476562 82.421875 21.285156 85.027344 L 19.6875 86.925781 L 24.273438 90.902344 L 26.050781 88.859375 C 27.023438 87.734375 28.589844 85.300781 29.523438 83.457031 C 31.070312 80.402344 31.222656 79.570312 31.230469 74.21875 C 31.234375 69.6875 31.445312 68.09375 32.152344 67.269531 C 33.804688 65.351562 36.523438 61.0625 38.453125 57.347656 C 39.492188 55.34375 40.410156 53.78125 40.496094 53.875 C 40.582031 53.96875 41.480469 57.167969 42.496094 60.988281 C 43.511719 64.808594 44.40625 68 44.488281 68.078125 C 44.9375 68.527344 50.039062 66.253906 50.039062 65.605469 C 50.039062 65.175781 48.894531 60.835938 47.496094 55.960938 C 46.097656 51.085938 44.652344 45.988281 44.289062 44.632812 C 43.925781 43.28125 43.441406 42.195312 43.214844 42.222656 C 42.988281 42.25 38.375 43.128906 32.960938 44.175781 M 11.625 64.078125 C 10.480469 65.34375 10.382812 67.617188 11.421875 69.035156 C 13.035156 71.242188 18.597656 71.125 21.65625 68.816406 C 23.085938 67.738281 23.085938 67.738281 21.945312 66.472656 C 19.089844 63.320312 13.488281 62.019531 11.625 64.078125 M 184.367188 95.988281 C 184.367188 97.445312 185.363281 98.035156 186.386719 97.1875 C 187.441406 96.3125 186.867188 94.863281 185.464844 94.863281 C 184.765625 94.863281 184.367188 95.269531 184.367188 95.988281 M 188.632812 95.726562 C 188.433594 96.25 188.546875 96.957031 188.886719 97.292969 C 189.765625 98.175781 191.4375 97.371094 191.207031 96.175781 C 190.953125 94.839844 189.097656 94.519531 188.632812 95.726562 M 227.214844 95.71875 C 227.214844 97.21875 229.859375 98.515625 231.683594 97.910156 C 233.476562 97.316406 234.339844 94.863281 232.757812 94.863281 C 232.253906 94.863281 231.847656 95.125 231.847656 95.441406 C 231.847656 95.761719 231.339844 96.019531 230.722656 96.019531 C 230.105469 96.019531 229.4375 95.761719 229.242188 95.441406 C 228.691406 94.554688 227.214844 94.753906 227.214844 95.71875 M 238.140625 95.875 C 237.421875 96.792969 237.441406 96.816406 238.359375 96.09375 C 238.917969 95.65625 239.375 95.203125 239.375 95.082031 C 239.375 94.605469 238.898438 94.910156 238.140625 95.875 M 240.789062 95.394531 C 240.972656 95.683594 240.789062 96.046875 240.390625 96.203125 C 239.992188 96.355469 240.238281 96.453125 240.9375 96.417969 C 241.910156 96.371094 242.0625 96.179688 241.589844 95.609375 C 240.878906 94.753906 240.300781 94.597656 240.789062 95.394531 M 238.796875 97.179688 C 238.796875 97.496094 239.070312 97.757812 239.410156 97.757812 C 239.746094 97.757812 239.859375 97.496094 239.664062 97.179688 C 239.464844 96.859375 239.191406 96.601562 239.050781 96.601562 C 238.910156 96.601562 238.796875 96.859375 238.796875 97.179688 M 240.964844 98.433594 C 240.410156 99.015625 240.183594 99.496094 240.460938 99.496094 C 241.046875 99.496094 242.546875 97.820312 242.207031 97.550781 C 242.082031 97.453125 241.523438 97.847656 240.964844 98.433594 M 237.636719 97.976562 C 237.636719 98.097656 238.09375 98.554688 238.648438 98.988281 C 239.570312 99.710938 239.589844 99.6875 238.871094 98.769531 C 238.113281 97.804688 237.636719 97.5 237.636719 97.976562 M 142.824219 99.453125 C 140.738281 100.765625 140.46875 101.503906 141.886719 102.046875 C 142.445312 102.261719 143.125 102.003906 143.554688 101.414062 C 144.433594 100.214844 148.371094 100.148438 149.125 101.320312 C 150.054688 102.765625 149.367188 103.832031 147.3125 104.125 C 144.339844 104.554688 144.210938 106.308594 147.132812 106.550781 C 148.953125 106.699219 149.375 106.972656 149.535156 108.113281 C 149.640625 108.875 149.382812 109.71875 148.957031 109.988281 C 147.699219 110.78125 144.617188 110.566406 143.839844 109.628906 C 142.976562 108.589844 141.75 108.5 141.175781 109.433594 C 140.941406 109.8125 141.328125 110.566406 142.074219 111.167969 C 143.867188 112.621094 149.007812 112.628906 150.796875 111.183594 C 152.335938 109.9375 152.496094 107.433594 151.132812 105.925781 C 150.28125 104.984375 150.273438 104.792969 151.0625 104.140625 C 151.546875 103.734375 151.945312 102.828125 151.945312 102.121094 C 151.945312 98.929688 146.292969 97.277344 142.824219 99.453125 M 156.621094 99.835938 C 155.640625 100.660156 154.839844 101.703125 154.839844 102.152344 C 154.839844 102.601562 154.464844 102.96875 154.003906 102.96875 C 152.671875 102.96875 152.332031 104.113281 153.335938 105.222656 C 153.84375 105.785156 154.261719 106.832031 154.261719 107.546875 C 154.261719 108.261719 155.023438 109.609375 155.953125 110.539062 C 158.285156 112.875 162.277344 112.957031 164.515625 110.71875 C 165.851562 109.378906 165.917969 109.136719 165.085938 108.671875 C 164.410156 108.292969 163.808594 108.476562 162.964844 109.320312 C 161.363281 110.917969 159.140625 110.796875 157.355469 109.011719 C 156.542969 108.199219 155.976562 107.429688 156.097656 107.308594 C 156.21875 107.1875 157.269531 107.300781 158.429688 107.5625 C 161.339844 108.21875 163.347656 107.722656 164.695312 106.003906 C 166.660156 103.507812 165.957031 100.761719 162.957031 99.210938 C 160.511719 97.945312 158.648438 98.128906 156.621094 99.835938 M 169.726562 98.695312 C 169.5 98.921875 169.316406 100.871094 169.316406 103.027344 C 169.316406 107.628906 168.589844 109.914062 166.992188 110.328125 C 166.359375 110.496094 165.839844 110.976562 165.839844 111.398438 C 165.839844 113.78125 169.621094 112.445312 170.789062 109.648438 C 171.253906 108.542969 171.632812 106.066406 171.632812 104.144531 L 171.632812 100.652344 L 176.84375 100.652344 L 176.84375 106.441406 C 176.84375 111.847656 176.917969 112.234375 178 112.234375 C 179.09375 112.234375 179.15625 111.847656 179.15625 105.367188 L 179.15625 98.5 L 174.648438 98.390625 C 172.171875 98.332031 169.957031 98.46875 169.726562 98.695312 M 185.652344 98.914062 C 184.921875 99.222656 183.878906 100.257812 183.335938 101.21875 C 182.789062 102.175781 182.03125 102.964844 181.652344 102.964844 C 180.449219 102.972656 180.171875 104.164062 181.128906 105.222656 C 181.636719 105.785156 182.054688 106.832031 182.054688 107.546875 C 182.054688 108.261719 182.8125 109.609375 183.746094 110.539062 C 186.078125 112.875 190.066406 112.957031 192.304688 110.71875 C 193.644531 109.378906 193.710938 109.136719 192.878906 108.671875 C 192.199219 108.292969 191.597656 108.476562 190.757812 109.320312 C 189.351562 110.722656 187.417969 110.828125 185.65625 109.59375 C 183.578125 108.140625 183.988281 107.058594 186.410156 107.605469 C 188.9375 108.175781 190.644531 107.789062 192.332031 106.261719 C 196.164062 102.792969 190.703125 96.785156 185.652344 98.914062 M 194.789062 105.285156 C 194.789062 111.785156 194.863281 112.234375 195.917969 112.234375 C 196.863281 112.234375 197.074219 111.761719 197.222656 109.332031 C 197.316406 107.734375 197.589844 106.429688 197.832031 106.433594 C 198.070312 106.4375 199.699219 106.441406 201.449219 106.441406 L 204.632812 106.441406 L 204.632812 109.335938 C 204.632812 111.863281 204.785156 112.234375 205.808594 112.234375 C 206.933594 112.234375 206.980469 111.9375 206.824219 105.4375 C 206.679688 99.5 206.53125 98.617188 205.648438 98.445312 C 204.789062 98.28125 204.632812 98.703125 204.632812 101.191406 L 204.632812 104.125 L 197.105469 104.125 L 197.105469 101.230469 C 197.105469 98.722656 196.953125 98.335938 195.949219 98.335938 C 194.855469 98.335938 194.789062 98.722656 194.789062 105.285156 M 209.265625 105.242188 L 209.265625 112.234375 L 212.765625 112.234375 C 215.710938 112.234375 216.492188 112.007812 217.6875 110.8125 C 219.078125 109.421875 219.472656 107.484375 218.75 105.601562 C 218.261719 104.328125 215.492188 102.96875 213.382812 102.96875 C 211.800781 102.96875 211.636719 102.78125 211.472656 100.800781 C 211.347656 99.289062 210.988281 98.578125 210.277344 98.445312 C 209.359375 98.269531 209.265625 98.898438 209.265625 105.242188 M 220.652344 98.722656 C 220.441406 98.933594 220.265625 102.0625 220.265625 105.671875 C 220.265625 111.847656 220.335938 112.234375 221.425781 112.234375 C 222.519531 112.234375 222.582031 111.847656 222.582031 105.285156 C 222.582031 99.882812 222.410156 98.335938 221.8125 98.335938 C 221.386719 98.335938 220.863281 98.511719 220.652344 98.722656 M 224.898438 104.085938 C 224.898438 109.144531 225.050781 110.070312 226.058594 111.074219 C 227.328125 112.347656 231.121094 112.664062 233.007812 111.652344 C 233.734375 111.265625 234.210938 111.265625 234.453125 111.652344 C 235.027344 112.585938 237.636719 112.347656 237.636719 111.363281 C 237.636719 110.886719 237.441406 110.492188 237.203125 110.488281 C 235.6875 110.457031 235.3125 109.488281 236.167969 107.84375 C 237.496094 105.296875 237.339844 100.507812 235.882812 99.191406 C 234.960938 98.355469 234.375 98.242188 233.171875 98.664062 C 231.007812 99.429688 230.492188 101.839844 231.578125 106.109375 C 232.527344 109.824219 232.257812 110.46875 229.746094 110.488281 C 227.5625 110.503906 226.925781 108.957031 226.917969 103.609375 C 226.910156 99.355469 226.765625 98.609375 225.90625 98.445312 C 225.003906 98.273438 224.898438 98.859375 224.898438 104.085938 M 157.625 101.667969 C 156.027344 103.523438 156 104.519531 157.519531 105.214844 C 160.667969 106.648438 163.523438 105.71875 163.523438 103.257812 C 163.523438 102.589844 163.210938 101.730469 162.832031 101.347656 C 161.792969 100.3125 158.621094 100.503906 157.625 101.667969 M 185.328125 101.710938 C 183.339844 103.90625 184.761719 105.863281 188.34375 105.863281 C 189.929688 105.863281 191.894531 104.628906 191.894531 103.636719 C 191.894531 103.410156 191.488281 102.648438 190.996094 101.941406 C 189.859375 100.316406 186.703125 100.191406 185.328125 101.710938 M 233.269531 101.273438 C 232.753906 102.105469 233.519531 107.023438 234.164062 107.023438 C 234.804688 107.023438 235.570312 102.105469 235.058594 101.273438 C 234.847656 100.933594 234.445312 100.652344 234.164062 100.652344 C 233.882812 100.652344 233.480469 100.933594 233.269531 101.273438 M 211.582031 107.675781 C 211.582031 110.296875 211.683594 110.496094 213.03125 110.496094 C 214.398438 110.496094 216.792969 108.726562 216.792969 107.710938 C 216.792969 106.546875 215.183594 105.269531 213.464844 105.074219 L 211.582031 104.859375 Z M 162.007812 118.863281 C 161.832031 119.328125 161.835938 119.949219 162.023438 120.25 C 162.207031 120.550781 161.96875 121.726562 161.496094 122.863281 C 160.457031 125.347656 160.355469 130.257812 161.324219 131.222656 C 162.558594 132.457031 165.152344 132.046875 166.195312 130.457031 C 167.03125 129.179688 167.0625 128.566406 166.445312 125.679688 C 165.355469 120.554688 165.335938 120.648438 167.550781 120.4375 C 170.4375 120.164062 171.050781 121.339844 171.050781 127.109375 C 171.050781 131 171.21875 131.917969 171.921875 131.917969 C 173.304688 131.917969 173.175781 120.867188 171.777344 119.605469 C 170.261719 118.242188 167.832031 117.820312 165.710938 118.558594 C 164.441406 119.003906 163.761719 119.023438 163.628906 118.621094 C 163.335938 117.746094 162.382812 117.890625 162.007812 118.863281 M 173.367188 118.363281 C 173.367188 118.464844 174.574219 121.492188 176.050781 125.089844 L 178.738281 131.628906 L 177.746094 134.433594 C 176.710938 137.359375 176.8125 138.066406 178.191406 137.535156 C 178.839844 137.289062 182.261719 129.28125 185.851562 119.613281 C 186.132812 118.867188 185.933594 118.601562 185.085938 118.601562 C 184.183594 118.601562 183.550781 119.644531 182.0625 123.589844 C 179.960938 129.15625 180.027344 129.167969 177.617188 122.847656 C 176.375 119.597656 175.738281 118.636719 174.699219 118.4375 C 173.964844 118.296875 173.367188 118.265625 173.367188 118.363281 M 187.265625 119.222656 C 187.265625 119.953125 187.664062 120.339844 188.421875 120.339844 C 189.808594 120.339844 189.84375 120.722656 188.710938 123.433594 C 187.644531 125.992188 187.585938 129.613281 188.59375 130.988281 C 189.09375 131.671875 189.917969 131.953125 191.050781 131.824219 C 194.171875 131.46875 194.734375 128.082031 192.742188 121.640625 C 192.378906 120.464844 192.53125 120.339844 194.335938 120.339844 C 196.957031 120.339844 197.164062 120.636719 196.1875 122.972656 C 195.1875 125.367188 195.113281 130.273438 196.066406 131.222656 C 196.960938 132.121094 199.570312 132.121094 200.464844 131.222656 C 201.425781 130.261719 201.335938 125.355469 200.3125 122.902344 C 199.386719 120.6875 199.890625 120.011719 202.140625 120.441406 C 203.050781 120.617188 203.207031 121.378906 203.351562 126.320312 C 203.496094 131.222656 203.648438 131.96875 204.472656 131.8125 C 205.25 131.660156 205.4375 130.792969 205.507812 126.996094 C 205.640625 119.648438 203.878906 117.019531 199.855469 118.546875 C 198.796875 118.949219 197.757812 118.945312 196.566406 118.527344 C 195.339844 118.101562 194.261719 118.109375 192.921875 118.550781 C 191.671875 118.960938 190.367188 118.992188 189.140625 118.640625 C 187.488281 118.167969 187.265625 118.238281 187.265625 119.222656 M 207.527344 125.261719 L 207.527344 131.917969 L 211.027344 131.917969 C 213.972656 131.917969 214.753906 131.691406 215.949219 130.496094 C 219.132812 127.316406 216.523438 122.65625 211.554688 122.65625 C 209.988281 122.65625 209.84375 122.488281 209.84375 120.628906 C 209.84375 118.988281 209.625 118.601562 208.6875 118.601562 C 207.597656 118.601562 207.527344 118.988281 207.527344 125.261719 M 163.402344 123.5625 C 162.734375 124.679688 162.375 128.765625 162.875 129.53125 C 163.730469 130.839844 164.6875 129.6875 164.640625 127.398438 C 164.597656 124.960938 163.882812 122.757812 163.402344 123.5625 M 190.527344 123.828125 C 189.921875 125.738281 189.710938 128.878906 190.144531 129.582031 C 190.96875 130.914062 191.894531 129.597656 191.886719 127.109375 C 191.878906 124.410156 191.011719 122.316406 190.527344 123.828125 M 197.46875 125.042969 C 196.933594 127.726562 197.027344 129.484375 197.734375 129.921875 C 198.976562 130.691406 199.550781 129.164062 199.140625 126.183594 C 198.679688 122.839844 198.003906 122.375 197.46875 125.042969 M 209.84375 127.578125 C 209.84375 129.9375 209.976562 130.183594 211.226562 130.183594 C 211.988281 130.183594 213.21875 129.691406 213.957031 129.089844 C 215.144531 128.128906 215.222656 127.824219 214.613281 126.484375 C 214.058594 125.269531 213.519531 124.972656 211.882812 124.972656 C 209.855469 124.972656 209.84375 124.980469 209.84375 127.578125 " fill-opacity="1" fill-rule="evenodd"/></g></g><g fill="#fa8501" fill-opacity="1"><g transform="translate(51.426918, 89.820631)"><g><path d="M 8.90625 -47.8125 L 3.6875 -47.8125 L 3.6875 -54.5 L 25.25 -54.5 C 29.695312 -54.5 33.546875 -54.023438 36.796875 -53.078125 C 40.046875 -52.128906 42.566406 -50.503906 44.359375 -48.203125 C 46.148438 -45.898438 47.046875 -42.703125 47.046875 -38.609375 L 47.046875 -36.21875 C 47.046875 -32.226562 46.085938 -29.171875 44.171875 -27.046875 C 42.253906 -24.929688 39.679688 -23.472656 36.453125 -22.671875 C 33.234375 -21.878906 29.65625 -21.484375 25.71875 -21.484375 L 17.8125 -21.484375 L 17.8125 -6.59375 L 21.34375 -6.59375 L 21.34375 0 L 5.375 0 L 5.375 -6.59375 L 8.90625 -6.59375 Z M 38.21875 -37.296875 C 38.21875 -40.160156 37.691406 -42.347656 36.640625 -43.859375 C 35.597656 -45.367188 34.15625 -46.40625 32.3125 -46.96875 C 30.46875 -47.53125 28.316406 -47.8125 25.859375 -47.8125 L 17.8125 -47.8125 L 17.8125 -27.703125 L 25.71875 -27.703125 C 28.019531 -27.703125 30.113281 -27.929688 32 -28.390625 C 33.894531 -28.859375 35.40625 -29.78125 36.53125 -31.15625 C 37.65625 -32.539062 38.21875 -34.585938 38.21875 -37.296875 Z M 38.21875 -37.296875 "/></g></g></g><g fill="#fa8501" fill-opacity="1"><g transform="translate(95.089383, 89.820631)"><g><path d="M 36.84375 -8.515625 C 36.894531 -7.191406 37.046875 -6.410156 37.296875 -6.171875 C 37.554688 -5.941406 37.914062 -5.828125 38.375 -5.828125 C 39.09375 -5.828125 39.59375 -5.878906 39.875 -5.984375 C 40.15625 -6.085938 40.628906 -6.269531 41.296875 -6.53125 L 41.984375 -1.078125 C 40.960938 -0.617188 40.128906 -0.285156 39.484375 -0.078125 C 38.847656 0.128906 38.039062 0.234375 37.0625 0.234375 C 35.019531 0.234375 33.585938 -0.0546875 32.765625 -0.640625 C 31.953125 -1.234375 31.34375 -2.117188 30.9375 -3.296875 L 30.703125 -3.296875 C 29.472656 -2.484375 28.359375 -1.78125 27.359375 -1.1875 C 26.359375 -0.601562 25.140625 -0.144531 23.703125 0.1875 C 22.273438 0.519531 20.332031 0.6875 17.875 0.6875 L 16.65625 0.6875 C 12.300781 0.53125 8.910156 -0.628906 6.484375 -2.796875 C 4.054688 -4.972656 2.84375 -8.335938 2.84375 -12.890625 L 2.84375 -14.046875 C 2.84375 -18.492188 4.488281 -21.691406 7.78125 -23.640625 C 11.082031 -25.585938 15.394531 -26.5625 20.71875 -26.5625 C 22.050781 -26.5625 23.34375 -26.546875 24.59375 -26.515625 C 25.851562 -26.492188 27.070312 -26.457031 28.25 -26.40625 C 28.25 -28.550781 28.066406 -30.328125 27.703125 -31.734375 C 27.347656 -33.140625 26.617188 -34.175781 25.515625 -34.84375 C 24.421875 -35.507812 22.75 -35.84375 20.5 -35.84375 C 19.363281 -35.84375 18.476562 -35.828125 17.84375 -35.796875 C 17.207031 -35.773438 16.59375 -35.722656 16 -35.640625 C 15.414062 -35.566406 14.609375 -35.457031 13.578125 -35.3125 L 13.578125 -32.234375 L 6.75 -32.234375 L 5.609375 -40.375 C 7.390625 -40.988281 9.765625 -41.585938 12.734375 -42.171875 C 15.703125 -42.765625 18.875 -43.0625 22.25 -43.0625 C 25.6875 -43.0625 28.375 -42.472656 30.3125 -41.296875 C 32.257812 -40.117188 33.664062 -38.617188 34.53125 -36.796875 C 35.40625 -34.984375 35.957031 -33.101562 36.1875 -31.15625 C 36.414062 -29.21875 36.53125 -27.476562 36.53125 -25.9375 L 36.53125 -21.71875 C 36.53125 -19.363281 36.539062 -16.945312 36.5625 -14.46875 C 36.59375 -11.988281 36.6875 -10.003906 36.84375 -8.515625 Z M 28.390625 -12.65625 L 28.390625 -20.640625 C 27.523438 -20.640625 26.644531 -20.664062 25.75 -20.71875 C 24.851562 -20.769531 23.945312 -20.796875 23.03125 -20.796875 C 18.882812 -20.796875 15.847656 -20.296875 13.921875 -19.296875 C 12.003906 -18.304688 11.046875 -16.503906 11.046875 -13.890625 L 11.046875 -12.8125 C 11.046875 -10.257812 11.828125 -8.507812 13.390625 -7.5625 C 14.953125 -6.613281 17.164062 -6.140625 20.03125 -6.140625 C 21.3125 -6.140625 22.550781 -6.289062 23.75 -6.59375 C 24.957031 -6.90625 25.984375 -7.519531 26.828125 -8.4375 C 27.671875 -9.363281 28.191406 -10.769531 28.390625 -12.65625 Z M 28.390625 -12.65625 "/></g></g></g><g fill="#fa8501" fill-opacity="1"><g transform="translate(132.305962, 89.820631)"><g><path d="M 9.28125 -55.34375 L 17.03125 -55.34375 L 17.03125 -42.4375 L 25.9375 -42.4375 L 25.9375 -35.609375 L 16.96875 -35.609375 L 16.96875 -9.984375 C 16.96875 -7.316406 17.835938 -5.984375 19.578125 -5.984375 C 20.335938 -5.984375 21.148438 -6.0625 22.015625 -6.21875 C 22.890625 -6.375 23.992188 -6.578125 25.328125 -6.828125 L 26.171875 -0.765625 C 24.992188 -0.515625 23.625 -0.222656 22.0625 0.109375 C 20.5 0.441406 18.925781 0.609375 17.34375 0.609375 C 14.269531 0.609375 12.03125 -0.585938 10.625 -2.984375 C 9.21875 -5.390625 8.515625 -8.640625 8.515625 -12.734375 L 8.515625 -35.609375 L 2.296875 -35.609375 L 2.296875 -42.4375 L 7.671875 -42.4375 C 8.128906 -43.46875 8.507812 -44.941406 8.8125 -46.859375 C 9.125 -48.773438 9.28125 -51.601562 9.28125 -55.34375 Z M 9.28125 -55.34375 "/></g></g></g><g fill="#fa8501" fill-opacity="1"><g transform="translate(155.172775, 89.820631)"><g><path d="M 34.15625 -25.859375 C 34.15625 -29.597656 33.453125 -32.234375 32.046875 -33.765625 C 30.640625 -35.304688 28.476562 -36.078125 25.5625 -36.078125 C 23.40625 -36.078125 21.328125 -35.628906 19.328125 -34.734375 C 17.335938 -33.835938 15.9375 -32.492188 15.125 -30.703125 L 15.125 0 L 6.671875 0 L 6.671875 -52.421875 L 1 -52.421875 L 1 -59.09375 L 15.125 -59.09375 L 15.125 -39.984375 C 16.757812 -41.003906 18.535156 -41.757812 20.453125 -42.25 C 22.367188 -42.738281 24.40625 -42.984375 26.5625 -42.984375 C 29.625 -42.984375 32.164062 -42.492188 34.1875 -41.515625 C 36.207031 -40.546875 37.816406 -39.28125 39.015625 -37.71875 C 40.222656 -36.15625 41.070312 -34.492188 41.5625 -32.734375 C 42.050781 -30.972656 42.296875 -29.296875 42.296875 -27.703125 L 42.296875 -13.28125 C 42.296875 -10.46875 42.457031 -8.585938 42.78125 -7.640625 C 43.113281 -6.691406 43.84375 -6.21875 44.96875 -6.21875 C 45.6875 -6.21875 46.554688 -6.320312 47.578125 -6.53125 L 48.421875 -0.390625 C 47.398438 -0.078125 46.40625 0.164062 45.4375 0.34375 C 44.46875 0.519531 43.546875 0.609375 42.671875 0.609375 C 40.109375 0.609375 38.046875 -0.347656 36.484375 -2.265625 C 34.929688 -4.179688 34.15625 -7.546875 34.15625 -12.359375 Z M 34.15625 -25.859375 "/></g></g></g><g fill="#fa8501" fill-opacity="1"><g transform="translate(198.067877, 89.820631)"><g><path d="M 56.875 -42.296875 L 68.921875 -42.296875 L 68.921875 -35.609375 L 63.859375 -35.609375 L 51.890625 0 L 41.984375 0 L 35.078125 -21.875 L 27.625 0 L 17.8125 0 L 6.53125 -35.609375 L 1.53125 -35.609375 L 1.53125 -42.296875 L 13.578125 -42.296875 C 15.171875 -36.710938 16.742188 -31.15625 18.296875 -25.625 C 19.859375 -20.101562 21.460938 -14.554688 23.109375 -8.984375 C 24.429688 -13.328125 25.742188 -17.644531 27.046875 -21.9375 C 28.359375 -26.238281 29.675781 -30.566406 31 -34.921875 L 28.859375 -42.21875 L 37.140625 -42.21875 C 38.785156 -36.632812 40.382812 -31.09375 41.9375 -25.59375 C 43.5 -20.09375 45.070312 -14.554688 46.65625 -8.984375 C 48.40625 -14.554688 50.125 -20.101562 51.8125 -25.625 C 53.5 -31.15625 55.1875 -36.710938 56.875 -42.296875 Z M 56.875 -42.296875 "/></g></g></g><g fill="#fa8501" fill-opacity="1"><g transform="translate(262.142301, 89.820631)"><g><path d="M 36.84375 -8.515625 C 36.894531 -7.191406 37.046875 -6.410156 37.296875 -6.171875 C 37.554688 -5.941406 37.914062 -5.828125 38.375 -5.828125 C 39.09375 -5.828125 39.59375 -5.878906 39.875 -5.984375 C 40.15625 -6.085938 40.628906 -6.269531 41.296875 -6.53125 L 41.984375 -1.078125 C 40.960938 -0.617188 40.128906 -0.285156 39.484375 -0.078125 C 38.847656 0.128906 38.039062 0.234375 37.0625 0.234375 C 35.019531 0.234375 33.585938 -0.0546875 32.765625 -0.640625 C 31.953125 -1.234375 31.34375 -2.117188 30.9375 -3.296875 L 30.703125 -3.296875 C 29.472656 -2.484375 28.359375 -1.78125 27.359375 -1.1875 C 26.359375 -0.601562 25.140625 -0.144531 23.703125 0.1875 C 22.273438 0.519531 20.332031 0.6875 17.875 0.6875 L 16.65625 0.6875 C 12.300781 0.53125 8.910156 -0.628906 6.484375 -2.796875 C 4.054688 -4.972656 2.84375 -8.335938 2.84375 -12.890625 L 2.84375 -14.046875 C 2.84375 -18.492188 4.488281 -21.691406 7.78125 -23.640625 C 11.082031 -25.585938 15.394531 -26.5625 20.71875 -26.5625 C 22.050781 -26.5625 23.34375 -26.546875 24.59375 -26.515625 C 25.851562 -26.492188 27.070312 -26.457031 28.25 -26.40625 C 28.25 -28.550781 28.066406 -30.328125 27.703125 -31.734375 C 27.347656 -33.140625 26.617188 -34.175781 25.515625 -34.84375 C 24.421875 -35.507812 22.75 -35.84375 20.5 -35.84375 C 19.363281 -35.84375 18.476562 -35.828125 17.84375 -35.796875 C 17.207031 -35.773438 16.59375 -35.722656 16 -35.640625 C 15.414062 -35.566406 14.609375 -35.457031 13.578125 -35.3125 L 13.578125 -32.234375 L 6.75 -32.234375 L 5.609375 -40.375 C 7.390625 -40.988281 9.765625 -41.585938 12.734375 -42.171875 C 15.703125 -42.765625 18.875 -43.0625 22.25 -43.0625 C 25.6875 -43.0625 28.375 -42.472656 30.3125 -41.296875 C 32.257812 -40.117188 33.664062 -38.617188 34.53125 -36.796875 C 35.40625 -34.984375 35.957031 -33.101562 36.1875 -31.15625 C 36.414062 -29.21875 36.53125 -27.476562 36.53125 -25.9375 L 36.53125 -21.71875 C 36.53125 -19.363281 36.539062 -16.945312 36.5625 -14.46875 C 36.59375 -11.988281 36.6875 -10.003906 36.84375 -8.515625 Z M 28.390625 -12.65625 L 28.390625 -20.640625 C 27.523438 -20.640625 26.644531 -20.664062 25.75 -20.71875 C 24.851562 -20.769531 23.945312 -20.796875 23.03125 -20.796875 C 18.882812 -20.796875 15.847656 -20.296875 13.921875 -19.296875 C 12.003906 -18.304688 11.046875 -16.503906 11.046875 -13.890625 L 11.046875 -12.8125 C 11.046875 -10.257812 11.828125 -8.507812 13.390625 -7.5625 C 14.953125 -6.613281 17.164062 -6.140625 20.03125 -6.140625 C 21.3125 -6.140625 22.550781 -6.289062 23.75 -6.59375 C 24.957031 -6.90625 25.984375 -7.519531 26.828125 -8.4375 C 27.671875 -9.363281 28.191406 -10.769531 28.390625 -12.65625 Z M 28.390625 -12.65625 "/></g></g></g><g fill="#fa8501" fill-opacity="1"><g transform="translate(299.358879, 89.820631)"><g><path d="M 32.3125 -42.21875 L 40.828125 -42.21875 L 40.90625 -1.921875 C 40.90625 1.609375 40.378906 4.550781 39.328125 6.90625 C 38.285156 9.257812 36.894531 11.140625 35.15625 12.546875 C 33.414062 13.953125 31.507812 14.945312 29.4375 15.53125 C 27.363281 16.125 25.300781 16.421875 23.25 16.421875 C 19.875 16.421875 16.789062 16.035156 14 15.265625 C 11.21875 14.503906 8.851562 13.148438 6.90625 11.203125 L 9.90625 5.53125 C 11.84375 7.269531 13.820312 8.34375 15.84375 8.75 C 17.863281 9.15625 19.953125 9.359375 22.109375 9.359375 C 22.921875 9.359375 23.925781 9.203125 25.125 8.890625 C 26.332031 8.585938 27.523438 8.078125 28.703125 7.359375 C 29.878906 6.648438 30.863281 5.734375 31.65625 4.609375 C 32.445312 3.484375 32.84375 2.097656 32.84375 0.453125 L 32.84375 -2.921875 C 31.769531 -1.273438 30.285156 -0.265625 28.390625 0.109375 C 26.503906 0.492188 24.410156 0.6875 22.109375 0.6875 C 20.109375 0.6875 18.148438 0.429688 16.234375 -0.078125 C 14.316406 -0.585938 12.578125 -1.503906 11.015625 -2.828125 C 9.453125 -4.160156 8.207031 -5.988281 7.28125 -8.3125 C 6.363281 -10.644531 5.90625 -13.601562 5.90625 -17.1875 L 5.90625 -35.6875 L 1 -35.6875 L 1 -42.296875 L 14.421875 -42.296875 L 14.421875 -18.578125 C 14.421875 -15.347656 14.703125 -12.847656 15.265625 -11.078125 C 15.835938 -9.316406 16.734375 -8.09375 17.953125 -7.40625 C 19.179688 -6.71875 20.820312 -6.375 22.875 -6.375 C 24.195312 -6.375 25.585938 -6.601562 27.046875 -7.0625 C 28.503906 -7.519531 29.742188 -8.296875 30.765625 -9.390625 C 31.796875 -10.492188 32.3125 -12.046875 32.3125 -14.046875 Z M 32.3125 -42.21875 "/></g></g></g></svg>